<svg width="1357" height="416" viewBox="0 0 1357 416" fill="none" xmlns="http://www.w3.org/2000/svg">
<g clip-path="url(#clip0_160_9)">
<path d="M234.92 278C225.64 278 218.04 274.96 212.12 268.88C206.36 262.8 201.08 252.8 196.28 238.88L178.04 184.64C175.96 178.56 175.88 172.4 177.8 166.16C179.72 159.92 184.12 155.68 191 153.44C197.4 151.2 203.24 151.36 208.52 153.92C213.8 156.48 217.48 160.88 219.56 167.12L239.24 225.92C241.48 232.8 243.8 237.44 246.2 239.84C248.6 242.08 251.8 242.56 255.8 241.28C259.16 240.16 261.24 237.76 262.04 234.08C263 230.24 261.88 223.68 258.68 214.4L248.84 184.64C246.76 178.4 246.68 172.24 248.6 166.16C250.68 159.92 255.16 155.68 262.04 153.44C268.44 151.2 274.28 151.36 279.56 153.92C284.84 156.48 288.52 160.88 290.6 167.12L310.76 228.56C312.04 232.24 314.04 235.6 316.76 238.64C319.48 241.68 323 242.56 327.32 241.28C330.68 240.16 332.84 237.92 333.8 234.56C334.92 231.2 334.76 227.28 333.32 222.8C331.4 216.72 329.24 211.92 326.84 208.4C324.6 204.88 322.36 201.84 320.12 199.28C318.04 196.72 316.28 194 314.84 191.12C313.56 188.24 312.76 184.32 312.44 179.36C312.12 174.24 313.16 169.76 315.56 165.92C318.12 161.92 321.48 158.8 325.64 156.56C329.96 154.32 334.68 153.2 339.8 153.2C347.64 153.2 353.96 155.84 358.76 161.12C363.72 166.24 366.2 172.32 366.2 179.36C366.2 181.92 365.8 185.28 365 189.44C364.2 193.6 363.16 197.44 361.88 200.96L351.8 227.12C349.72 232.88 347.32 238.8 344.6 244.88C342.04 250.8 339 256.24 335.48 261.2C332.12 266.16 328.2 270.24 323.72 273.44C319.24 276.48 314.04 278 308.12 278C297.88 278 289.64 275.36 283.4 270.08C277.32 264.8 272.52 256.08 269 243.92H266.6C264.52 253.84 261.08 262 256.28 268.4C251.48 274.8 244.36 278 234.92 278ZM408.521 278C401.481 278 395.881 275.92 391.721 271.76C387.721 267.44 385.721 262.16 385.721 255.92V116.96C385.721 110.24 387.721 104.56 391.721 99.92C395.881 95.28 401.721 92.96 409.241 92.96C416.601 92.96 422.121 95.28 425.801 99.92C429.641 104.56 431.561 110.32 431.561 117.2V188.96H435.881C435.881 179.84 437.481 172.64 440.681 167.36C444.041 162.08 448.281 158.32 453.401 156.08C458.681 153.68 464.041 152.48 469.481 152.48C479.081 152.48 486.361 154.88 491.321 159.68C496.441 164.32 499.881 170.56 501.641 178.4C503.561 186.24 504.521 194.8 504.521 204.08V255.92C504.521 262.48 502.361 267.84 498.041 272C493.881 276 488.281 278 481.241 278C474.041 278 468.361 276 464.201 272C460.041 267.84 457.961 262.48 457.961 255.92V213.44C457.961 207.68 456.841 203.2 454.601 200C452.361 196.8 449.081 195.2 444.761 195.2C440.441 195.2 437.161 196.96 434.921 200.48C432.681 204 431.561 208.48 431.561 213.92V255.92C431.561 262.16 429.481 267.44 425.321 271.76C421.321 275.92 415.721 278 408.521 278ZM525.611 124.64C525.611 117.76 527.691 112.24 531.851 108.08C536.171 103.76 542.091 101.6 549.611 101.6C557.611 101.6 563.531 103.68 567.371 107.84C571.371 112 573.371 117.52 573.371 124.4C573.371 131.12 571.371 136.56 567.371 140.72C563.531 144.72 557.611 146.72 549.611 146.72C541.771 146.72 535.771 144.72 531.611 140.72C527.611 136.56 525.611 131.2 525.611 124.64ZM549.611 278C542.091 278 536.491 275.92 532.811 271.76C529.131 267.6 527.291 262.4 527.291 256.16V174.08C527.291 167.2 529.131 161.76 532.811 157.76C536.491 153.76 542.091 151.76 549.611 151.76C557.131 151.76 562.731 153.76 566.411 157.76C570.251 161.76 572.171 167.04 572.171 173.6V256.16C572.171 262.4 570.171 267.6 566.171 271.76C562.331 275.92 556.811 278 549.611 278ZM655.479 281.12C644.439 281.12 634.199 280.08 624.759 278C615.479 275.76 608.039 272.32 602.439 267.68C596.839 262.88 594.039 256.56 594.039 248.72C594.039 241.84 596.119 236.16 600.279 231.68C604.439 227.2 609.959 224.96 616.839 224.96C621.159 224.96 625.479 225.68 629.799 227.12C634.279 228.4 638.999 229.68 643.959 230.96C648.919 232.24 654.279 232.88 660.039 232.88C665.159 232.88 668.599 232.64 670.359 232.16C672.119 231.52 672.999 230.4 672.999 228.8C672.999 226.88 671.879 225.6 669.639 224.96C667.559 224.32 663.959 223.52 658.839 222.56L641.559 219.2C634.359 217.76 627.319 215.92 620.439 213.68C613.719 211.28 608.119 207.76 603.639 203.12C599.319 198.48 597.159 192.16 597.159 184.16C597.159 173.28 601.959 164.8 611.559 158.72C621.319 152.64 635.399 149.6 653.799 149.6C664.359 149.6 673.799 150.64 682.119 152.72C690.599 154.8 697.319 157.92 702.279 162.08C707.239 166.08 709.719 171.12 709.719 177.2C709.879 183.76 708.119 189.04 704.439 193.04C700.759 197.04 696.119 199.04 690.519 199.04C686.519 199.04 682.439 198.56 678.279 197.6C674.279 196.48 669.879 195.36 665.079 194.24C660.439 192.96 655.079 192.24 648.999 192.08C644.679 191.76 641.159 192 638.439 192.8C635.719 193.6 634.359 194.88 634.359 196.64C634.359 198.56 635.959 199.92 639.159 200.72C642.359 201.36 647.159 202.24 653.559 203.36L670.599 206.48C680.999 208.24 689.239 210.48 695.319 213.2C701.559 215.76 706.039 219.36 708.759 224C711.479 228.64 712.839 235.04 712.839 243.2C712.839 251.68 710.359 258.8 705.399 264.56C700.599 270.16 693.879 274.32 685.239 277.04C676.599 279.76 666.679 281.12 655.479 281.12ZM819.168 278C810.368 278 803.008 275.28 797.088 269.84C791.328 264.4 787.648 257.36 786.048 248.72H781.728V303.92C781.728 310.48 779.888 316 776.208 320.48C772.528 325.12 766.928 327.44 759.408 327.44C752.208 327.44 746.608 325.12 742.608 320.48C738.768 316 736.848 310.32 736.848 303.44V213.68C736.848 205.68 736.528 198.96 735.888 193.52C735.408 187.92 734.928 182.88 734.448 178.4C733.808 171.68 735.168 166 738.528 161.36C741.888 156.56 747.328 153.68 754.848 152.72C764.608 151.44 771.488 153.2 775.488 158C779.648 162.64 781.728 169.92 781.728 179.84V191.36L782.688 191.6C783.488 185.36 785.328 179.28 788.208 173.36C791.248 167.28 795.488 162.32 800.928 158.48C806.368 154.48 813.248 152.48 821.568 152.48C835.488 152.48 845.808 158.08 852.528 169.28C859.408 180.32 862.848 195.12 862.848 213.68C862.848 256.56 848.288 278 819.168 278ZM780.768 213.2C780.768 215.76 781.088 217.76 781.728 219.2C782.688 222.24 784.688 224.48 787.728 225.92C790.928 227.2 795.648 227.84 801.888 227.84C809.888 227.84 815.328 226.64 818.208 224.24C821.248 221.84 822.768 218.16 822.768 213.2C822.768 208.08 821.328 204.4 818.448 202.16C815.568 199.76 810.128 198.56 802.128 198.56C795.728 198.56 790.928 199.28 787.728 200.72C784.688 202 782.688 204.16 781.728 207.2C781.088 208.64 780.768 210.64 780.768 213.2ZM908.193 278C900.673 278 894.833 275.84 890.673 271.52C886.513 267.2 884.433 261.76 884.433 255.2V176.48C884.433 169.6 886.513 163.92 890.673 159.44C894.833 154.8 900.673 152.48 908.193 152.48C915.713 152.48 921.473 154.8 925.473 159.44C929.473 163.92 931.473 169.44 931.473 176V181.04H936.033C936.673 172.56 939.873 165.6 945.633 160.16C951.393 154.72 958.193 152 966.033 152C973.873 152 980.033 154.4 984.513 159.2C989.153 164 991.473 170.4 991.473 178.4C991.473 185.92 989.313 192.16 984.993 197.12C980.673 202.08 975.153 204.56 968.433 204.56C962.833 204.56 958.113 203.28 954.273 200.72C950.593 198 947.873 194.88 946.113 191.36C940.993 190.72 937.233 191.28 934.833 193.04C932.593 194.64 931.473 197.92 931.473 202.88V255.2C931.473 261.76 929.473 267.2 925.473 271.52C921.473 275.84 915.713 278 908.193 278ZM1067.95 281.12C1056.91 281.12 1046.67 280.08 1037.23 278C1027.95 275.76 1020.51 272.32 1014.91 267.68C1009.31 262.88 1006.51 256.56 1006.51 248.72C1006.51 241.84 1008.59 236.16 1012.75 231.68C1016.91 227.2 1022.43 224.96 1029.31 224.96C1033.63 224.96 1037.95 225.68 1042.27 227.12C1046.75 228.4 1051.47 229.68 1056.43 230.96C1061.39 232.24 1066.75 232.88 1072.51 232.88C1077.63 232.88 1081.07 232.64 1082.83 232.16C1084.59 231.52 1085.47 230.4 1085.47 228.8C1085.47 226.88 1084.35 225.6 1082.11 224.96C1080.03 224.32 1076.43 223.52 1071.31 222.56L1054.03 219.2C1046.83 217.76 1039.79 215.92 1032.91 213.68C1026.19 211.28 1020.59 207.76 1016.11 203.12C1011.79 198.48 1009.63 192.16 1009.63 184.16C1009.63 173.28 1014.43 164.8 1024.03 158.72C1033.79 152.64 1047.87 149.6 1066.27 149.6C1076.83 149.6 1086.27 150.64 1094.59 152.72C1103.07 154.8 1109.79 157.92 1114.75 162.08C1119.71 166.08 1122.19 171.12 1122.19 177.2C1122.35 183.76 1120.59 189.04 1116.91 193.04C1113.23 197.04 1108.59 199.04 1102.99 199.04C1098.99 199.04 1094.91 198.56 1090.75 197.6C1086.75 196.48 1082.35 195.36 1077.55 194.24C1072.91 192.96 1067.55 192.24 1061.47 192.08C1057.15 191.76 1053.63 192 1050.91 192.8C1048.19 193.6 1046.83 194.88 1046.83 196.64C1046.83 198.56 1048.43 199.92 1051.63 200.72C1054.83 201.36 1059.63 202.24 1066.03 203.36L1083.07 206.48C1093.47 208.24 1101.71 210.48 1107.79 213.2C1114.03 215.76 1118.51 219.36 1121.23 224C1123.95 228.64 1125.31 235.04 1125.31 243.2C1125.31 251.68 1122.83 258.8 1117.87 264.56C1113.07 270.16 1106.35 274.32 1097.71 277.04C1089.07 279.76 1079.15 281.12 1067.95 281.12Z" fill="white"/>
</g>
<defs>
<clipPath id="clip0_160_9">
<rect width="1357" height="416" fill="white"/>
</clipPath>
</defs>
</svg>
